<svg id="Bahan_copy_2" viewBox="0 0 64 64" xmlns="http://www.w3.org/2000/svg" data-name="Bahan copy 2"><g fill="rgb(0,0,0)"><path d="m23.42 20.19a3.06 3.06 0 0 0 -4.32 0l-1.66 1.67 24.67 24.66c.91984-1.022 2.70424-2.244 2.54985-3.82a3.01549 3.01549 0 0 0 -.88985-2.16s-19.2769-19.27628-20.35-20.35z"/><path d="m16.03 23.27-2.74 2.74a3.06 3.06 0 0 0 0 4.31995l4.4 4.4a3.13567 3.13567 0 0 1 -.33006 4.69l-10.35994 7.75005c-5.42623 4.01545-2.89394 12.8295 4.00017 12.83a7.04527 7.04527 0 0 0 5.62983-2.82l7.92-10.57a3.13229 3.13229 0 0 1 4.69-.34l4.4 4.4a3.051 3.051 0 0 0 4.32 0l2.74-2.73zm-2.39 31.37a3.05489 3.05489 0 0 1 -4.31993-4.32007 3.05489 3.05489 0 0 1 4.31993 4.32007z"/><path d="m59.37 28.53-4.3-4.3c-.69205-.81738-2.22611-.55827-3.15-.63l.03-1.62a2.03808 2.03808 0 0 0 -.59-1.47l-7.54-7.53a2.00044 2.00044 0 0 0 -1.86-.55l-2.29.46.65-1.77a2.04519 2.04519 0 0 0 -.47-2.12l-4.41-4.41a2.06966 2.06966 0 0 0 -3.1.26l-9.08 12.86a5.065 5.065 0 0 1 1.65 1.14l4.06 4.06 1.1-1.95a.9985.9985 0 1 1 1.74.98l-1.38 2.44 3.87 3.87 3.7-3.7a1.00074 1.00074 0 0 1 1.40993 1.42l-3.69 3.69 3.86 3.87 2.44-1.38a.99871.99871 0 0 1 .98001 1.74l-1.94994 1.1 4.06 4.07a5.08085 5.08085 0 0 1 1.14 1.64l12.86-9.08a2.03952 2.03952 0 0 0 .26-3.09z"/><path d="m11.48 51.43a1.04936 1.04936 0 1 0 .75 1.8 1.06019 1.06019 0 0 0 -.75-1.8z"/></g></svg>