<svg id="Layer_1" height="512" viewBox="0 0 64 64" width="512" xmlns="http://www.w3.org/2000/svg" data-name="Layer 1"><path d="m24 34c15.828 4.393 17 24 17 24s1.172-19.607 17-24c-15.828-4.393-17-24-17-24s-1.172 19.607-17 24z"/><path d="m3 42c8.379 2.379 9 13 9 13s.621-10.621 9-13c-8.379-2.379-9-13-9-13s-.621 10.621-9 13z"/><path d="m13 15c6.517 1.647 7 9 7 9s.483-7.353 7-9c-6.517-1.647-7-9-7-9s-.483 7.353-7 9z"/><path d="m51 18c4.655 1.281 5 7 5 7s.345-5.719 5-7c-4.655-1.281-5-7-5-7s-.345 5.719-5 7z"/></svg>