<svg id="Bahan_copy_2" height="512" viewBox="0 0 64 64" width="512" xmlns="http://www.w3.org/2000/svg" data-name="Bahan copy 2"><g fill="rgb(0,0,0)"><path d="m42.6 21.92-8.52-4.53c-1.17478-.5636-1.06379-1.92565-1.04-3.02a5.21318 5.21318 0 0 0 -5.21-5.21h-18.25a5.21955 5.21955 0 0 0 -5.21 5.21v39.12a6.51691 6.51691 0 0 0 6.51 6.51h27.31a6.51691 6.51691 0 0 0 6.51-6.51v-28.07a3.96653 3.96653 0 0 0 -2.1-3.5zm-7.53 33.18h-21.07a3.99887 3.99887 0 0 1 -4-4v-18.71a4.00529 4.00529 0 0 1 4-4h21.07a4.01175 4.01175 0 0 1 4 4v18.71a4.00529 4.00529 0 0 1 -4 4zm-26.45-39.24a3.00237 3.00237 0 0 1 3-3h13.74a3.00879 3.00879 0 0 1 3 3v1.72a3.00879 3.00879 0 0 1 -3 3h-13.74a3.00237 3.00237 0 0 1 -3-3z"/><path d="m11.62 18.58h13.74a1.00293 1.00293 0 0 0 1-1v-1.72a1.003 1.003 0 0 0 -1-1h-13.74a.99654.99654 0 0 0 -1 1v1.72a.99651.99651 0 0 0 1 1z"/><path d="m35.07 30.39h-21.07a1.99943 1.99943 0 0 0 -2 2v18.71a1.99311 1.99311 0 0 0 2 2h21.07a1.99948 1.99948 0 0 0 2-2v-18.71a2.00588 2.00588 0 0 0 -2-2z"/><path d="m42.08 12.41a4.76052 4.76052 0 0 0 -7.17.65014 13.3631 13.3631 0 0 1 .13 2.59986c1.27612.66578 10.22273 5.60527 10.88 6.81a4.64 4.64 0 0 0 -.15-6.38z"/><path d="m59.55 6.28a3.01543 3.01543 0 0 0 -3.77-2.15l-8.22 2.45c-1.98374.47783-3.67073 2.221-5.09995 3.58009a52.2328 52.2328 0 0 1 5.42995 5.36991 9.36461 9.36461 0 0 1 2.95-2.51l7.07-3.31a3.02293 3.02293 0 0 0 1.64-3.43z"/></g></svg>