<svg fill="none" height="512" viewBox="0 0 128 128" width="512" xmlns="http://www.w3.org/2000/svg"><path clip-rule="evenodd" d="m37.8823 36.0294c1.9493-1.0396 2.6867-3.4625 1.6471-5.4118l-4-7.5c-1.0396-1.9492-3.4625-2.6866-5.4118-1.647-1.9492 1.0396-2.6866 3.4625-1.647 5.4117l4 7.5c1.0396 1.9493 3.4625 2.6867 5.4117 1.6471zm0 58.4412c1.9493 1.0396 2.6867 3.4625 1.6471 5.4117l-4 7.4997c-1.0396 1.95-3.4625 2.687-5.4118 1.647-1.9492-1.039-2.6866-3.462-1.647-5.411l4-7.5004c1.0396-1.9492 3.4625-2.6866 5.4117-1.647zm17.1177-.4706c2.2091 0 4 1.7909 4 4v7.5c0 2.209-1.7909 4-4 4s-4-1.791-4-4v-7.5c0-2.2091 1.7909-4 4-4zm22.3282 1.7812c-1.2254-1.8381-3.7089-2.3348-5.547-1.1094s-2.3348 3.7089-1.1094 5.5472l5 7.5c1.2254 1.838 3.7089 2.335 5.547 1.109 1.8381-1.225 2.3348-3.709 1.1094-5.547zm-18.3282-63.2812c0 2.2091-1.7909 4-4 4s-4-1.7909-4-4v-7.5c0-2.2091 1.7909-4 4-4s4 1.7909 4 4zm12.7812 3.3282c1.8381 1.2254 4.3216.7287 5.547-1.1094l5-7.5c1.2254-1.8381.7287-4.3216-1.1094-5.547s-4.3216-.7287-5.547 1.1094l-5 7.5c-1.2254 1.8381-.7287 4.3216 1.1094 5.547zm36.0428-.7727c3.465-.5096 6.366 2.6075 5.61 6.0263l-4.103 18.5546c-4.051 18.3211-20.2927 31.3636-39.0564 31.3636h-46.2529c-7.6309 0-12.4499-8.2028-8.7349-14.8684l10.6724-19.1485c3.7837-6.7889 10.5097-11.4319 18.1991-12.5629zm-16.824 34.9445c7.732 0 14-6.268 14-14s-6.268-14-14-14-14 6.268-14 14 6.268 14 14 14zm-37 17c11.0457 0 20-8.9543 20-20s-8.9543-20-20-20-20 8.9543-20 20 8.9543 20 20 20z" fill="rgb(0,0,0)" fill-rule="evenodd"/></svg>