<?xml version="1.0" encoding="iso-8859-1"?>
<!-- Generator: Adobe Illustrator 19.0.0, SVG Export Plug-In . SVG Version: 6.00 Build 0)  -->
<svg version="1.1" id="Capa_1" xmlns="http://www.w3.org/2000/svg" xmlns:xlink="http://www.w3.org/1999/xlink" x="0px" y="0px"
	 viewBox="0 0 512 512" style="enable-background:new 0 0 512 512;" xml:space="preserve">
<g>
	<g>
		<path d="M365.731,12.463c-2.818-2.853-5.643-5.717-8.408-8.333l-0.016-0.016c-5.775-5.479-14.852-5.477-20.623,0.002
			c-2.811,2.661-5.684,5.566-8.549,8.47c-20.572,20.914-56.137,63.076-56.137,92.412c-0.001,41.353,33.646,76.999,74.998,76.999
			s74.999-35.647,74.999-76.999C421.995,75.368,386.612,33.656,365.731,12.463z"/>
	</g>
</g>
<g>
	<g>
		<path d="M503.703,153.58c-17.9-8.947-34.876-16.934-54.13-24.529c-10.175,47.322-52.261,82.946-102.577,82.946
			c-57.89,0-104.999-47.109-104.999-104.999c0-4.735,0.861-9.565,1.811-14.394C164.418,94.215,88.652,113.397,8.29,153.58
			c-7.476,3.753-10.374,12.767-6.709,20.127l101.103,202.22c3.361,6.741,11.137,9.813,18.032,7.559
			c12.568-4.069,25.302-7.383,38.108-10.278l-82.77-163.729c-11.193-22.174-2.387-49.23,19.878-60.468
			c21.432-11.05,48.927-2.957,60.453,19.878l97.794,193.438c45.732-0.104,93.378,6.923,137.1,21.116
			c6.987,2.285,14.736-0.908,18.047-7.559l101.088-202.176C514.118,166.295,511.115,157.286,503.703,153.58z"/>
	</g>
</g>
<g>
	<g>
		<path d="M254.997,421.995c-1.392,0-2.703,0.286-4.063,0.41L129.607,182.407c-3.735-7.397-12.803-10.4-20.156-6.621
			c-7.397,3.735-10.356,12.759-6.621,20.156l120.774,238.907c-8.372,8.177-13.607,19.547-13.607,32.146c0,24.814,20.186,45,45,45
			c24.814,0,45-20.186,45-45C299.996,442.181,279.81,421.995,254.997,421.995z"/>
	</g>
</g>
<g>
</g>
<g>
</g>
<g>
</g>
<g>
</g>
<g>
</g>
<g>
</g>
<g>
</g>
<g>
</g>
<g>
</g>
<g>
</g>
<g>
</g>
<g>
</g>
<g>
</g>
<g>
</g>
<g>
</g>
</svg>
