<svg xmlns="http://www.w3.org/2000/svg" version="1.1" xmlns:xlink="http://www.w3.org/1999/xlink" width="512" height="512" x="0" y="0" viewBox="0 0 53.846 53.846" style="enable-background:new 0 0 512 512" xml:space="preserve"><g><path d="M22.667 43.26c-2.481 0-4.5 2.02-4.5 4.5 0 2.481 2.019 4.5 4.5 4.5s4.5-2.019 4.5-4.5-2.019-4.5-4.5-4.5zm0 7a2.503 2.503 0 0 1-2.5-2.5c0-1.378 1.122-2.5 2.5-2.5s2.5 1.122 2.5 2.5c0 1.379-1.122 2.5-2.5 2.5zM42.768 43.26c-2.48 0-4.5 2.02-4.5 4.5 0 2.481 2.02 4.5 4.5 4.5 2.481 0 4.5-2.019 4.5-4.5s-2.019-4.5-4.5-4.5zm0 7a2.503 2.503 0 0 1-2.5-2.5c0-1.378 1.123-2.5 2.5-2.5 1.379 0 2.5 1.122 2.5 2.5 0 1.379-1.122 2.5-2.5 2.5zM48.471 15.172l-.099-.02-5.464.032a6.283 6.283 0 0 0-1.195 0l-8.078.04-7.991-.034c-.437-.045-.974-.041-1.197-.011l-5.561-.027-.099.02a6.654 6.654 0 0 0-4.595 3.428L10.307 2.114c-.105-.453-.508-.528-.974-.528H1a1 1 0 0 0 0 2h7.539L15.751 34.4c.001.006.004-.113.006-.108.551 2.687 2.646 4.671 5.344 5.158.12.032.24.034.363.058l.1.005.637-.011-.005-1.004.133.999 11.297-.058 11.308.057.004-1.001.123 1 .638.004.101-.021c.123-.024.242-.058.351-.09a6.629 6.629 0 0 0 5.368-5.266l2.201-11.111c.712-3.607-1.642-7.124-5.249-7.839zm3.285 7.451-2.203 11.111a4.642 4.642 0 0 1-3.758 3.686l-.158.038a5.156 5.156 0 0 1-.146.038l-11.867-.059-11.857.059-.146-.038-.157-.038a4.64 4.64 0 0 1-3.759-3.686l-2.202-11.111a4.676 4.676 0 0 1 3.58-5.469l5.451.021a4.96 4.96 0 0 1 1.001.01l8.1.04 8.188-.045c.305-.031.502-.036 1 0l5.354-.026a4.677 4.677 0 0 1 3.579 5.469z" fill="#2f3438" opacity="1" data-original="#000000"></path></g></svg>