<svg id="Layer_1" enable-background="new 0 0 512 512" height="512" viewBox="0 0 512 512" width="512" xmlns="http://www.w3.org/2000/svg" fill="#000000"><path d="m256 0c-141.159 0-256 114.841-256 256s114.841 256 256 256 256-114.841 256-256-114.841-256-256-256zm0 494c-131.233 0-238-106.767-238-238 0-131.234 106.767-238 238-238s238 106.766 238 238c0 131.233-106.767 238-238 238zm9-262.392v-125.604c0-4.971-4.029-9-9-9s-9 4.029-9 9v125.603c-9.914 3.67-17 13.218-17 24.392 0 6.674 2.529 12.767 6.677 17.375l-44.228 82.936c-2.339 4.387-.68 9.838 3.706 12.177 1.35.72 2.799 1.061 4.228 1.061 3.217 0 6.329-1.729 7.949-4.767l44.268-83.011c1.114.146 2.247.229 3.4.229 14.337 0 26-11.663 26-26 0-11.173-7.086-20.722-17-24.391zm-9 32.392c-4.411 0-8-3.589-8-8s3.589-8 8-8 8 3.589 8 8-3.589 8-8 8zm-9-197.985v-18.013c0-4.971 4.029-9 9-9s9 4.029 9 9v18.013c0 4.971-4.029 9-9 9s-9-4.029-9-9zm120.793 14.355-8.991 15.572c-1.667 2.887-4.692 4.501-7.803 4.501-1.526 0-3.074-.389-4.491-1.208-4.305-2.485-5.779-7.99-3.294-12.294l8.991-15.572c2.484-4.304 7.988-5.782 12.294-3.293 4.305 2.485 5.779 7.989 3.294 12.294zm48.267 72.827 15.571-8.99c4.306-2.484 9.81-1.01 12.294 3.294 2.485 4.305 1.011 9.809-3.294 12.294l-15.571 8.99c-1.417.818-2.965 1.207-4.491 1.207-3.111 0-6.136-1.614-7.803-4.501-2.486-4.304-1.011-9.808 3.294-12.294zm29.925 93.803h18.013c4.971 0 9 4.029 9 9s-4.029 9-9 9h-18.013c-4.971 0-9-4.029-9-9s4.03-9 9-9zm-2.06 117.499c-1.667 2.888-4.692 4.502-7.803 4.502-1.526 0-3.074-.39-4.491-1.208l-15.571-8.99c-4.305-2.485-5.779-7.989-3.294-12.294 2.485-4.306 7.988-5.78 12.294-3.294l15.571 8.99c4.305 2.485 5.779 7.989 3.294 12.294zm-76.132 67.133c2.485 4.305 1.011 9.81-3.294 12.294-1.417.818-2.965 1.208-4.491 1.208-3.111 0-6.136-1.614-7.803-4.502l-8.99-15.572c-2.485-4.305-1.011-9.81 3.294-12.294 4.307-2.485 9.81-1.01 12.294 3.294zm-102.793 14.353v18.013c0 4.971-4.029 9-9 9s-9-4.029-9-9v-18.013c0-4.971 4.029-9 9-9s9 4.03 9 9zm-96.214-20.925-8.991 15.572c-1.667 2.888-4.692 4.502-7.803 4.502-1.526 0-3.074-.39-4.491-1.208-4.305-2.485-5.779-7.989-3.294-12.294l8.991-15.572c2.485-4.306 7.988-5.78 12.294-3.294 4.305 2.485 5.779 7.989 3.294 12.294zm-69.552-78.551c2.485 4.305 1.011 9.809-3.294 12.294l-15.571 8.99c-1.417.818-2.965 1.208-4.491 1.208-3.111 0-6.136-1.614-7.803-4.502-2.485-4.305-1.011-9.809 3.294-12.294l15.571-8.99c4.307-2.486 9.81-1.01 12.294 3.294zm-33.219-81.509h-18.013c-4.971 0-9-4.029-9-9s4.029-9 9-9h18.013c4.971 0 9 4.029 9 9s-4.03 9-9 9zm33.219-99.508c-1.667 2.887-4.692 4.501-7.803 4.501-1.526 0-3.074-.389-4.491-1.207l-15.571-8.99c-4.305-2.485-5.779-7.99-3.294-12.294 2.484-4.304 7.989-5.781 12.294-3.294l15.571 8.99c4.305 2.485 5.78 7.989 3.294 12.294zm44.973-85.123c-2.485-4.305-1.011-9.809 3.294-12.294 4.307-2.485 9.81-1.009 12.294 3.294l8.99 15.572c2.485 4.305 1.011 9.809-3.294 12.294-1.417.818-2.965 1.207-4.491 1.207-3.111 0-6.136-1.614-7.803-4.501z"/></svg>