<svg id="Layer_2_00000120517509751581745740000011018345030536315564_" enable-background="new 0 0 512 512" viewBox="0 0 512 512" xmlns="http://www.w3.org/2000/svg"><g id="Icon"><path id="i" d="m306 186.6c-4.4 35.4-7.8 150.4-6.6 203.5.6 21.6 10.5 40.4 26.5 54.2l-133.8 1.1c19.4-13.3 27.1-32.1 27.7-75.7.5-13.3.5-26.5 1.1-39.8 1.1-22.7 1.1-51.4-.6-75.2-1.6-23.8-9.4-53.1-34.3-61.9zm-92.9-81.3c5.5-27.6 24.9-38.7 48.1-38.7 2.8 0 5.5 0 8.3.6 28.2 3.9 45.9 22.1 42 50.9-3.9 29.9-23.8 40.9-47.5 40.9-2.8 0-6.1 0-8.9-.6-27.6-2.8-48-21.5-42-53.1z"/></g></svg>