<svg xmlns="http://www.w3.org/2000/svg" version="1.1" xmlns:xlink="http://www.w3.org/1999/xlink" width="512" height="512" x="0" y="0" viewBox="0 0 62.993 62.993" style="enable-background:new 0 0 512 512" xml:space="preserve"><g><path d="M62.58 60.594 41.313 39.329c3.712-4.18 5.988-9.66 5.988-15.677C47.301 10.61 36.692.001 23.651.001 10.609.001 0 10.61 0 23.652c0 13.041 10.609 23.65 23.651 23.65 6.016 0 11.497-2.276 15.677-5.988l21.265 21.267a1.403 1.403 0 0 0 1.987 0c.55-.551.55-1.438 0-1.987zM23.651 44.492c-11.492 0-20.841-9.348-20.841-20.84S12.159 2.811 23.651 2.811c11.491 0 20.84 9.349 20.84 20.841 0 5.241-1.958 10.023-5.163 13.689a21.416 21.416 0 0 1-1.987 1.987c-3.666 3.206-8.449 5.164-13.69 5.164z" style="" fill="#828c94" data-original="#010002" opacity="1"></path></g></svg>