<svg id="Layer_1" height="512" viewBox="0 0 64 64" width="512" xmlns="http://www.w3.org/2000/svg"><path d="m49.643 39.286c-3.479 0-6.563 1.725-8.442 4.363l-16.98-8.489c.32-.997.493-2.059.493-3.16s-.173-2.164-.493-3.161l16.979-8.489c1.879 2.64 4.963 4.364 8.442 4.364 5.712 0 10.358-4.646 10.358-10.357s-4.646-10.357-10.357-10.357-10.357 4.646-10.357 10.357c0 .806.093 1.591.268 2.344l-17.273 8.636c-1.901-2.257-4.748-3.694-7.924-3.694-5.711 0-10.357 4.646-10.357 10.357s4.646 10.357 10.357 10.357c3.176 0 6.023-1.437 7.924-3.695l17.272 8.637c-.175.753-.268 1.538-.268 2.344.001 5.711 4.647 10.357 10.358 10.357s10.357-4.646 10.357-10.357-4.646-10.357-10.357-10.357zm0-31.286c3.505 0 6.357 2.852 6.357 6.357s-2.852 6.357-6.357 6.357-6.356-2.852-6.356-6.357 2.851-6.357 6.356-6.357zm-35.286 30.357c-3.505 0-6.357-2.851-6.357-6.357 0-3.505 2.852-6.357 6.357-6.357s6.357 2.852 6.357 6.357c0 3.506-2.852 6.357-6.357 6.357zm35.286 17.643c-3.505 0-6.356-2.852-6.356-6.357s2.852-6.356 6.356-6.356c3.506 0 6.357 2.852 6.357 6.356 0 3.505-2.852 6.357-6.357 6.357z"/></svg>