<svg xmlns="http://www.w3.org/2000/svg" version="1.1" xmlns:xlink="http://www.w3.org/1999/xlink" width="512" height="512" x="0" y="0" viewBox="0 0 32 32" style="enable-background:new 0 0 512 512" xml:space="preserve" class=""><g transform="matrix(1.059999999999999,0,0,1.059999999999999,-0.960056498050669,-0.8904775857925262)"><path fill="#35c5f0" d="M29.731 13.8a2.339 2.339 0 0 0-1.3-3.989L21.466 8.8a.34.34 0 0 1-.254-.185L18.1 2.3a2.337 2.337 0 0 0-4.193 0l-3.12 6.317a.337.337 0 0 1-.254.185L3.565 9.814A2.338 2.338 0 0 0 2.27 13.8l5.041 4.914a.337.337 0 0 1 .1.3l-1.19 6.939a2.338 2.338 0 0 0 3.393 2.465l6.232-3.277a.333.333 0 0 1 .314 0l6.233 3.276a2.338 2.338 0 0 0 3.392-2.465l-1.19-6.939a.339.339 0 0 1 .1-.3z" opacity="1" data-original="#efce4a" class=""></path></g></svg>