<svg xmlns="http://www.w3.org/2000/svg" xml:space="preserve" width="322.136px" height="400px" x="0px" y="0px" viewBox="0 0 322.136 400"><g fill-rule="evenodd" clip-rule="evenodd"><path fill="red" d="M206.651 8.745c37.795-19.549 84.387-5.213 104.261 31.93 19.875 37.143 5.539 83.735-32.256 103.284l-30.953 16.291c26.717.977 52.131 15.639 65.489 40.727 19.875 37.469 5.539 83.735-32.256 103.284l-165.515 86.993c-37.795 19.549-84.387 5.213-104.261-31.93S5.948 275.59 43.417 256.041L74.37 239.75c-26.717-.977-52.131-15.639-65.489-40.727-19.875-37.469-5.213-83.735 32.256-103.284L206.651 8.745z"/><path fill="#FFF" d="m117.377 138.421 100.352 61.905-100.352 61.579z"/></g></svg>