<svg xmlns="http://www.w3.org/2000/svg" version="1.1" xmlns:xlink="http://www.w3.org/1999/xlink" width="512" height="512" x="0" y="0" viewBox="0 0 512 512" style="enable-background:new 0 0 512 512" xml:space="preserve" class=""><g><path d="M148.21 512c-10.79 0-20.934-4.204-28.579-11.836-7.632-7.638-11.842-17.79-11.842-28.586s4.211-20.948 11.842-28.582l187.001-186.998L119.631 69c-7.632-7.635-11.842-17.786-11.842-28.582S112 19.47 119.631 11.836 137.42 0 148.21 0s20.948 4.201 28.579 11.832l215.58 215.584c7.632 7.635 11.842 17.786 11.842 28.582S400 276.946 392.369 284.58l-215.58 215.58c-7.645 7.636-17.79 11.84-28.579 11.84z" fill="#ffffff" opacity="1" data-original="#000000" class=""></path></g></svg>