<svg fill="none" height="24" viewBox="0 0 24 24" width="24" xmlns="http://www.w3.org/2000/svg"><path clip-rule="evenodd" d="m7.5308 4.02543c-.45061-.63085-1.35984-.7061-1.90803-.1579l-1.37957 1.3796c-.60941.60942-.8678 1.48653-.6861 2.32901 1.38972 6.44366 6.42307 11.47706 12.8667 12.86676.8425.1817 1.7197-.0767 2.3291-.6861l1.3796-1.3796c.5482-.5482.4729-1.4574-.1579-1.908l-2.1423-1.5302c-.499-.3565-1.1827-.2999-1.6163.1338l-1.0383 1.0382c-.2539.2539-.6391.3227-.9651.1724-2.8697-1.3228-5.17319-3.6264-6.49605-6.49603-.1503-.32604-.08154-.71123.17236-.96512l1.03827-1.03827c.43366-.43366.49024-1.11728.13377-1.61634zm-2.9687-1.21855c1.20361-1.20363 3.19993-1.03842 4.1893.3467l1.5301 2.1422c.7827 1.09574.6585 2.5967-.29366 3.54886l-.71521.71521c1.13047 2.22695 2.94047 4.03705 5.16747 5.16745l.7152-.7152c.9522-.9521 2.4531-1.0764 3.5489-.2937l2.1422 1.5302c1.3851.9893 1.5503 2.9856.3467 4.1892l-1.3795 1.3796c-.9697.9698-2.3654 1.3809-3.706 1.0918-7.01961-1.514-12.50285-6.9972-14.01679-14.01682-.28911-1.34054.12203-2.73619 1.09172-3.7059z" fill="rgb(0,0,0)" fill-rule="evenodd"/></svg>