<svg id="Layer_1" viewBox="0 0 32 32" xmlns="http://www.w3.org/2000/svg" data-name="Layer 1"><g fill="#231f20"><path d="m28.031 8.124a2.986 2.986 0 0 0 -2.341-1.124h-17.97l-.772-2.316c0-.012-.014-.021-.019-.033a.967.967 0 0 0 -.106-.186 1 1 0 0 0 -.1-.147.983.983 0 0 0 -.138-.107.978.978 0 0 0 -.171-.111 1 1 0 0 0 -.15-.042.959.959 0 0 0 -.228-.046c-.012-.005-.023-.012-.036-.012h-3a1 1 0 0 0 0 2h2.28l.754 2.261 2.643 11.89a2.982 2.982 0 0 0 2.923 2.349h11.979a2.985 2.985 0 0 0 2.93-2.349l2.109-9.5a2.983 2.983 0 0 0 -.587-2.527zm-3.474 11.592a1 1 0 0 1 -.978.784h-11.979a.992.992 0 0 1 -.976-.783l-2.377-10.717h17.443a1 1 0 0 1 .976 1.217z"/><path d="m12.691 23.5a3 3 0 1 0 3 3 3 3 0 0 0 -3-3zm0 4a1 1 0 1 1 1-1 1 1 0 0 1 -1 1z"/><path d="m22.691 23.5a3 3 0 1 0 3 3 3 3 0 0 0 -3-3zm0 4a1 1 0 1 1 1-1 1 1 0 0 1 -1 1z"/></g></svg>