<svg xmlns="http://www.w3.org/2000/svg" version="1.1" xmlns:xlink="http://www.w3.org/1999/xlink" width="512" height="512" x="0" y="0" viewBox="0 0 103 103" style="enable-background:new 0 0 512 512" xml:space="preserve" class=""><g><path d="M97.57 80.46c.14-.48 0-.99-.36-1.33a1.29 1.29 0 0 0-1.36-.27l-2.65 1c-.09.04-.2.02-.28-.04l-2.33-1.61c-.41-.29-.94-.31-1.38-.07s-.7.7-.67 1.21l.13 2.82c0 .11-.04.2-.12.27l-2.26 1.71c-.4.3-.59.8-.49 1.29.09.49.45.88.94 1.01l2.73.75c.1.03.17.1.21.2l.93 2.67c.17.48.58.81 1.08.87a1.297 1.297 0 0 0 1.25-.58l1.56-2.37c.05-.08.15-.13.25-.13l2.83-.06c.5-.02.94-.3 1.16-.76.21-.45.15-.98-.17-1.37l-1.77-2.21a.315.315 0 0 1-.05-.28zM18.09 89.7v.12c0 .28-.22.5-.5.5-2.55 0-4.63 2.08-4.63 4.64 0 .27-.23.5-.5.5h-.13c-.28 0-.5-.23-.5-.5 0-2.522-2.058-4.64-4.63-4.64-.28 0-.5-.22-.5-.5v-.12c0-.28.22-.5.5-.5 2.55 0 4.63-2.08 4.63-4.64 0-.27.22-.5.5-.5h.13c.27 0 .5.23.5.5 0 .83.23 1.65.66 2.37.657 1.132 1.872 2.003 3.25 2.2 0 0 .15.03.16.03.18.02.37.04.56.04.28 0 .5.22.5.5zM97.76 11.36v.12c0 .28-.22.5-.5.5-2.55 0-4.63 2.08-4.63 4.64 0 .27-.23.5-.5.5H92c-.28 0-.5-.23-.5-.5 0-.2-.02-.39-.04-.58-.065-.1-.123-2.225-2.37-3.49-.68-.37-1.45-.57-2.22-.57-.28 0-.5-.22-.5-.5v-.12c0-.28.22-.5.5-.5 2.55 0 4.63-2.08 4.63-4.64 0-.27.22-.5.5-.5h.13c.27 0 .5.23.5.5a4.623 4.623 0 0 0 3.9 4.57l.17.03c.18.02.37.04.56.04.28 0 .5.22.5.5zM67.24 37.31c-3.42 8.46-9.77 16.16-17.61 17.15-.835 6.317 1.447 12.81 2.38 19.86.38.09.76.14 1.15.18-.003.038-.002.076-.006.114-.02.24-.028.48-.038.719-.022.56-.025.715-.003 1.312.272 7.498 4.989 14.532 1.866 21.443a1 1 0 0 0 1.823.824c2.26-5 .973-9.931-.27-14.7-.233-.89-.46-1.767-.665-2.636-.021-.087-.04-.174-.06-.262-.452-1.965-.783-3.952-.694-5.96.026-.606.06-.784.072-.886 7.083-.77 12.827-9.003 15.255-16.678.9-2.84 1.38-5.65 1.38-8.14 0-4.62-1.64-8.99-4.58-12.34zM98.312 34.298a1 1 0 0 0-.95 1.047c.254 5.348-.677 10.318-2.767 14.775a1 1 0 0 0 1.81.85c2.23-4.755 3.225-10.044 2.954-15.72a1.01 1.01 0 0 0-1.047-.952zM96.982 31.576a1 1 0 1 0 1.977-.306c-.424-2.735-.996-4.428-1.02-4.498a1 1 0 0 0-1.893.645c.005.016.542 1.614.936 4.16zM5.596 47.012a1 1 0 0 0-.681 1.24 30.863 30.863 0 0 0 1.682 4.464 1 1 0 0 0 1.81-.85 28.758 28.758 0 0 1-1.572-4.173.995.995 0 0 0-1.24-.681zM4.982 44.913a1 1 0 0 0 .99-1.15c-1.215-7.991.962-14.535.984-14.6a1 1 0 0 0-1.893-.646c-.096.284-2.36 7.05-1.068 15.547a1 1 0 0 0 .987.85zM7.856 18.138a.691.691 0 0 0 .898.384l1.436-.575a.691.691 0 0 0-.515-1.283l-1.435.576a.691.691 0 0 0-.384.898zM14.542 14.71l-1.435.577a.691.691 0 1 0 .515 1.282l1.435-.576a.691.691 0 0 0-.515-1.282zM11.025 13.208a.691.691 0 1 0-1.283.514l.576 1.436a.69.69 0 0 0 1.283-.515zM11.696 18.59l.576 1.435a.69.69 0 1 0 1.282-.514l-.576-1.436a.691.691 0 1 0-1.282.515zM11.425 16.06a.6.6 0 1 0 .447 1.114.6.6 0 0 0-.447-1.115zM37.614 74.903a.69.69 0 1 0-.77 1.147l1.283.863a.691.691 0 0 0 .77-1.147zM41.008 78.017a.69.69 0 0 0 .188.96l1.283.862a.691.691 0 0 0 .771-1.147l-1.283-.863a.691.691 0 0 0-.96.188zM41.368 74.168l-.863 1.283a.691.691 0 1 0 1.147.771l.863-1.283a.691.691 0 0 0-1.147-.771zM38.442 78.52l-.863 1.284a.691.691 0 0 0 1.147.771l.863-1.284a.691.691 0 1 0-1.147-.77zM39.548 77.036a.6.6 0 1 0 .997.67.6.6 0 0 0-.997-.67zM14.134 70.031a.691.691 0 1 0-.77 1.147l1.283.863a.69.69 0 1 0 .77-1.147zM18.487 72.957a.691.691 0 0 0-.771 1.147l1.283.863a.69.69 0 1 0 .771-1.147zM17.888 69.295l-.863 1.284a.691.691 0 0 0 1.147.771l.863-1.283a.691.691 0 0 0-1.147-.772zM14.962 73.648l-.863 1.283a.69.69 0 1 0 1.147.771l.863-1.283a.691.691 0 1 0-1.147-.771zM16.068 72.164a.6.6 0 1 0 .997.67.6.6 0 0 0-.997-.67zM75.71 12.086a.69.69 0 0 0-.188-.959l-1.283-.863a.691.691 0 0 0-.772 1.147l1.284.863a.691.691 0 0 0 .959-.188zM79.103 15.2a.691.691 0 1 0 .772-1.147l-1.284-.862a.691.691 0 1 0-.771 1.147zM78.276 11.584l.863-1.284a.691.691 0 1 0-1.147-.77l-.863 1.283a.691.691 0 0 0 1.147.77zM75.35 15.936l.863-1.283a.69.69 0 1 0-1.147-.772l-.863 1.284a.691.691 0 0 0 1.147.771zM77.17 13.068a.6.6 0 1 0-.997-.67.6.6 0 0 0 .996.67z" fill="#15376b" opacity="1" data-original="#000000" class=""></path><path d="M65.625 87.208c1.534.81 3.447 1.001 5.045.02.968-.595 1.93-1.823 1.902-3.23-.032-1.537-1.362-2.59-2.659-2.835-1.374-.256-3.324.093-4.853 3.236l-.148.314c-.29-.4-.478-.926-.536-1.5-.16-1.61.634-3.407 2.358-5.343a.75.75 0 0 0-1.12-.998c-2.014 2.262-2.933 4.445-2.73 6.489.094.957.438 1.808.993 2.46.136.16.283.314.44.46-.108.368-.192.731-.253 1.096-.515 3.078 1.163 6.806 4.485 7.45a5.678 5.678 0 0 0 2.498-.1.75.75 0 0 0-.381-1.451 4.124 4.124 0 0 1-1.832.078c-2.462-.478-3.69-3.348-3.291-5.729.023-.138.05-.277.082-.417zm.785-2.153c1.349-2.774 2.764-2.506 3.224-2.417.686.129 1.423.661 1.438 1.392.015.692-.473 1.481-1.187 1.92-1.168.714-2.65.484-3.79-.199.094-.226.199-.458.315-.696zM8.08 38.28c0 9.07 6.54 22.71 15.55 24.65-.81 4.47.22 8.91 1.21 13.22 1.21 5.28 2.36 10.27.36 15.27-.2.51.05 1.09.56 1.3a1.005 1.005 0 0 0 1.3-.56c2.23-5.58.96-11.11-.27-16.46-1-4.33-1.95-8.43-1.16-12.53h.18c3.48 0 6.9-1.8 9.92-5.14-.89-2.94-1.37-5.85-1.37-8.38 0-.77.04-1.54.13-2.32-5.47-6.49-8.64-16.04-8.64-22.99 0-1.52.14-3 .42-4.44-9.95-.26-18.19 8.08-18.19 18.38zM36.37 49.34c-.01.1-.01.21-.01.31 0 6.65 3.51 15.75 8.93 20.9-1.096-5.594-2.324-11.021-1.63-16.66-2.69-.86-5.13-2.46-7.29-4.55zM77.06 18.45c-2.61 0-5.13.58-7.44 1.7.25 1.36.38 2.76.38 4.19 0 3.35-.7 7.14-1.98 10.88 3.72 3.8 5.8 8.95 5.8 14.43 0 2.68-.51 5.7-1.47 8.74-.2.62-.42 1.25-.66 1.88 1.52.85 3.09 1.33 4.66 1.44-.8 5.16.22 10.3 1.2 15.28 1.23 6.18 2.39 12.01.36 17.9-.18.52.1 1.09.62 1.27a1.02 1.02 0 0 0 1.28-.62c2.19-6.4.93-12.77-.29-18.94-1.03-5.15-2-10.03-1.11-14.95 9.44-1.25 16.38-15.45 16.38-24.8 0-10.15-7.95-18.4-17.73-18.4z" fill="#15376b" opacity="1" data-original="#000000" class=""></path><path d="M47.93 3.5c-11.07 0-20.08 9.35-20.08 20.84 0 10.44 7.62 26.208 18.069 28.06a22.758 22.758 0 0 0-.31 2.033 24.99 24.99 0 0 0-.135 2C45.16 66.766 50.684 76.69 47.3 86.51c-.18.52.1 1.09.62 1.27.1.027.198.041.297.045.011 0 .022.005.033.005a1 1 0 0 0 .945-.674C53.264 75.343 45.52 63.73 47.93 52.57 59.38 52.57 68 35.44 68 24.34 68 12.85 59 3.5 47.93 3.5z" fill="#15376b" opacity="1" data-original="#000000" class=""></path></g></svg>