<svg id="svg8" height="512" viewBox="0 0 28 28.006538" width="512" xmlns="http://www.w3.org/2000/svg" xmlns:svg="http://www.w3.org/2000/svg"><g id="layer2" transform="translate(-302 -81.993)"><g id="g37396" transform="translate(300 80)"><path id="rect33657" d="m15.994141 1.9941406c-.773213.0149647-1.542389.2784573-2.175782.7871094l-10.3437496 8.267578c-.8749135.699456-1.4746094 1.759514-1.4746094 2.951172v13c0 1.644699 1.3553004 3 3 3h6 2c0-2.666667 0-5.333333 0-8 0-.571291.428709-1 1-1h4c.571291 0 1 .428709 1 1v8h2 6c1.644699 0 3-1.355301 3-3v-13c0-1.173392-.557359-2.279748-1.5-2.978516-3.434141-2.7740729-6.869536-5.5556467-10.302734-8.3261715-.652604-.4837627-1.429914-.7161366-2.203125-.7011719zm.03516 1.9960938c.339562-.0063.681497.097754.972656.3125 3.59359 2.8992532 7.230007 5.8408936 10.306641 8.3261716.435212.32261.691402.829352.691402 1.371094v13c0 .571291-.428709 1-1 1h-6v-6c0-1.644699-1.355301-3-3-3h-4c-1.644699 0-3 1.355301-3 3v6h-6c-.5712916 0-1-.428709-1-1v-13c0-.522232.2608447-1.017912.7246094-1.388672 3.4474436-2.7580442 6.9011296-5.5119235 10.3457026-8.2714842.28223-.2266474.619422-.3433075.958985-.3496094z" stroke-linejoin="round"/></g></g></svg>