<?xml version="1.0" encoding="UTF-8"?>
<svg id="_레이어_2" data-name="레이어 2" xmlns="http://www.w3.org/2000/svg" xmlns:xlink="http://www.w3.org/1999/xlink" viewBox="0 0 56.69 39.49">
  <defs>
    <style>
      .cls-1 {
        fill: #d1d2d2;
      }

      .cls-1, .cls-2, .cls-3, .cls-4, .cls-5, .cls-6, .cls-7 {
        stroke-width: 0px;
      }

      .cls-2 {
        fill: #221f20;
      }

      .cls-3 {
        fill: url(#_무제_그라디언트_3);
      }

      .cls-8 {
        clip-path: url(#clippath-2);
      }

      .cls-4 {
        fill: url(#_무제_그라디언트_2);
      }

      .cls-5 {
        fill: none;
      }

      .cls-9 {
        clip-path: url(#clippath-1);
      }

      .cls-6 {
        fill: #fff;
      }

      .cls-10 {
        clip-path: url(#clippath);
      }

      .cls-7 {
        fill: url(#_무제_그라디언트_22);
      }
    </style>
    <clipPath id="clippath">
      <path id="SVGID" class="cls-5" d="M28.39,0h-.07C12.66.02-.02,8.88,0,19.79c.02,10.9,12.72,19.73,28.38,19.7,15.66-.02,28.33-8.88,28.32-19.79-.02-10.89-12.68-19.7-28.3-19.7h0"/>
    </clipPath>
    <radialGradient id="_무제_그라디언트_3" data-name="무제 그라디언트 3" cx="-42.22" cy="-17.4" fx="-42.22" fy="-17.4" r="2.01" gradientTransform="translate(483.55 340.15) scale(10.78 18.41)" gradientUnits="userSpaceOnUse">
      <stop offset="0" stop-color="#fff"/>
      <stop offset=".09" stop-color="#deedf5"/>
      <stop offset=".3" stop-color="#8ac0de"/>
      <stop offset=".53" stop-color="#2489c2"/>
      <stop offset=".62" stop-color="#2076aa"/>
      <stop offset=".81" stop-color="#19456d"/>
      <stop offset="1" stop-color="#11132e"/>
    </radialGradient>
    <clipPath id="clippath-1">
      <path id="SVGID-2" data-name="SVGID" class="cls-5" d="M28.32,3.08c-12.73.02-23.03,7.5-23.02,16.71.01,9.2,10.34,16.65,23.07,16.63,12.73-.02,23.03-7.5,23.02-16.7-.01-9.19-10.31-16.63-23.01-16.63h-.05Z"/>
    </clipPath>
    <radialGradient id="_무제_그라디언트_2" data-name="무제 그라디언트 2" cx="3.9" cy="-16.9" fx="3.9" fy="-16.9" r="2.01" gradientTransform="translate(-234.25 -14.43) rotate(90) scale(8.76 15.53)" gradientUnits="userSpaceOnUse">
      <stop offset="0" stop-color="#828385"/>
      <stop offset=".05" stop-color="#828385"/>
      <stop offset=".13" stop-color="#9b9c9d"/>
      <stop offset=".28" stop-color="#dcdcdd"/>
      <stop offset=".36" stop-color="#fff"/>
      <stop offset=".63" stop-color="#f3f3f4"/>
      <stop offset=".65" stop-color="#ededee"/>
      <stop offset="1" stop-color="#6a6a6d"/>
    </radialGradient>
    <clipPath id="clippath-2">
      <path id="SVGID-3" data-name="SVGID" class="cls-5" d="M28.32,4c-12.02.02-21.76,7.08-21.74,15.78.01,8.69,9.77,15.73,21.79,15.71,12.02-.02,21.76-7.08,21.74-15.78-.01-8.68-9.74-15.71-21.74-15.71h-.05Z"/>
    </clipPath>
    <radialGradient id="_무제_그라디언트_22" data-name="무제 그라디언트 22" cx="-97.15" cy="-53.36" fx="-97.15" fy="-53.36" r="2.01" gradientTransform="translate(832.98 803.26) scale(8.28 14.68)" gradientUnits="userSpaceOnUse">
      <stop offset="0" stop-color="#fff"/>
      <stop offset=".32" stop-color="#fdfdfd"/>
      <stop offset=".45" stop-color="#f6f6f6"/>
      <stop offset=".54" stop-color="#e9e9ea"/>
      <stop offset=".62" stop-color="#d8d8d9"/>
      <stop offset=".69" stop-color="#c1c1c3"/>
      <stop offset=".75" stop-color="#a5a5a7"/>
      <stop offset=".8" stop-color="#858587"/>
      <stop offset=".84" stop-color="#6a6a6d"/>
      <stop offset="1" stop-color="#6a6a6d"/>
    </radialGradient>
  </defs>
  <g id="_레이어_1-2" data-name="레이어 1">
    <g>
      <g class="cls-10">
        <rect class="cls-3" x="-.05" y="-.05" width="56.79" height="39.61" transform="translate(-.03 .05) rotate(-.09)"/>
      </g>
      <g class="cls-9">
        <rect class="cls-4" x=".21" y="-8.29" width="56.29" height="56.09" transform="translate(-5.73 25.45) rotate(-44.36)"/>
      </g>
      <g class="cls-8">
        <rect class="cls-7" x="11.57" y="-2.75" width="33.55" height="45.02" transform="translate(7.26 47.13) rotate(-87.26)"/>
      </g>
      <path class="cls-6" d="M48.58,19.71c.01,7.78-9.04,14.11-20.21,14.13-11.18.02-20.25-6.28-20.26-14.06-.01-7.79,9.04-14.11,20.22-14.13,11.18-.02,20.25,6.28,20.26,14.07"/>
      <path class="cls-1" d="M47.98,19.71c.01,7.01-8.77,12.7-19.61,12.72-10.84.01-19.64-5.65-19.66-12.66-.01-7.01,8.77-12.71,19.61-12.72,10.84-.02,19.64,5.65,19.66,12.66"/>
      <path class="cls-2" d="M12.58,14.48h1.75c1.12,0,1.89.06,2.28.17.39.11.7.3.9.56.21.26.34.55.39.88.05.32.08.95.08,1.9v3.49c.01.9-.03,1.49-.1,1.79-.07.3-.21.54-.4.71-.18.17-.42.29-.69.36-.28.07-.69.1-1.25.1h-2.94s-.02-9.96-.02-9.96ZM14.92,16.19v6.55c.34,0,.55-.07.63-.22.08-.15.12-.56.12-1.22v-3.87c0-.45-.02-.74-.05-.87-.03-.13-.08-.22-.18-.28-.09-.06-.27-.09-.52-.09"/>
      <path class="cls-2" d="M22.88,14.47l1.35,9.96h-2.38s-.13-1.79-.13-1.79h-.84s-.13,1.79-.13,1.79h-2.41s1.17-9.96,1.17-9.96h3.37ZM21.65,20.87c-.12-1.13-.24-2.52-.36-4.18-.23,1.91-.38,3.3-.44,4.18h.8Z"/>
      <polygon class="cls-2" points="24.61 14.47 28.5 14.46 28.5 16.45 26.94 16.46 26.95 18.35 28.4 18.34 28.4 20.24 26.95 20.24 26.95 22.43 28.66 22.43 28.66 24.42 24.63 24.42 24.61 14.47"/>
      <polygon class="cls-2" points="31.65 14.46 31.66 22.42 33.08 22.42 33.09 24.41 29.34 24.42 29.32 14.46 31.65 14.46"/>
      <rect class="cls-2" x="33.64" y="14.45" width="2.33" height="9.96" transform="translate(-.04 .06) rotate(-.1)"/>
      <path class="cls-2" d="M44.09,14.44v9.96s-2.02,0-2.02,0v-6.72s-.81,6.73-.81,6.73h-1.45s-.87-6.57-.87-6.57v6.57s-2.03,0-2.03,0l-.02-9.96h3.02c.09.59.18,1.3.28,2.11l.34,2.53.53-4.65h3.03Z"/>
      <path class="cls-2" d="M18.65,27.96v.25c0,.12.02.21.07.29.05.07.14.1.26.1.09,0,.16-.03.21-.1.05-.07.07-.16.07-.25,0-.12-.03-.22-.1-.29-.07-.07-.17-.15-.3-.23-.02-.01-.04-.02-.07-.04-.15-.09-.28-.17-.38-.24-.1-.07-.19-.15-.26-.23-.08-.1-.14-.2-.18-.32s-.06-.25-.06-.4c0-.33.09-.59.28-.76.19-.17.45-.26.78-.26s.61.1.8.29c.19.2.28.46.28.78v.05s0,.05,0,.05h-.78v-.04c0-.07,0-.13-.01-.18s-.02-.09-.04-.14c-.02-.04-.04-.08-.08-.11-.04-.03-.09-.05-.15-.05-.09,0-.16.02-.21.06s-.08.1-.09.18v.03s0,.02,0,.03c0,.08.02.15.07.21.04.05.11.11.19.17.06.04.16.1.3.18.24.14.4.25.49.33.11.1.18.21.24.35.05.13.08.31.08.51,0,.35-.09.61-.28.8s-.46.28-.81.28c-.19,0-.35-.02-.49-.07s-.26-.11-.35-.2c-.09-.09-.15-.18-.2-.29-.04-.11-.07-.22-.07-.35v-.39h.79Z"/>
      <rect class="cls-2" x="20.44" y="25.56" width=".85" height="3.61"/>
      <polygon class="cls-2" points="22.47 27.15 22.46 27.16 22.54 29.17 21.74 29.17 21.74 25.56 22.61 25.56 23.26 27.58 23.28 27.58 23.19 25.56 24 25.56 24 29.17 23.13 29.17 22.47 27.15"/>
      <path class="cls-2" d="M25.83,26.82v-.23c0-.15-.02-.27-.07-.35s-.11-.12-.2-.12c-.12,0-.21.03-.26.09-.05.06-.07.15-.07.28v1.79c0,.1.02.18.07.24s.13.08.23.08c.07,0,.12-.02.17-.05.04-.03.07-.07.09-.12.02-.05.03-.1.04-.16,0-.06.01-.12.01-.19v-.33h.85v.44c0,.33-.1.58-.3.77-.2.19-.51.28-.92.28-.38,0-.65-.09-.83-.29-.17-.19-.26-.48-.26-.86v-1.48c0-.39.09-.68.28-.87.18-.19.47-.28.86-.28s.66.08.86.25.3.43.3.79v.3h-.85Z"/>
      <polygon class="cls-2" points="27.1 29.17 27.1 25.56 29.04 25.56 29.04 26.29 27.95 26.29 27.95 26.95 29.01 26.95 29.01 27.67 27.95 27.67 27.95 28.45 29.1 28.45 29.1 29.17 27.1 29.17"/>
      <path class="cls-2" d="M30.2,26.74h-.74v-.55c.11,0,.21-.01.32-.03.1-.02.2-.05.29-.09.09-.04.16-.1.23-.17.06-.07.1-.16.12-.25h.54v3.53h-.76v-2.43Z"/>
      <path class="cls-2" d="M32.64,28.33c0,.11.03.19.05.23.04.06.11.1.21.1.11,0,.18-.05.21-.15.03-.1.05-.26.05-.47v-.24c-.1.07-.18.12-.25.14-.07.03-.17.04-.29.04-.16,0-.29-.03-.4-.09-.1-.06-.19-.14-.24-.24-.06-.1-.1-.21-.12-.34-.02-.13-.03-.26-.03-.41,0-.21.01-.4.05-.56.03-.16.09-.3.17-.41.08-.12.2-.2.34-.26.14-.06.33-.09.54-.09.2,0,.36.03.5.09s.24.15.32.27c.08.11.13.25.17.4.03.15.05.32.05.51v.95c0,.22-.01.41-.03.58-.02.17-.07.32-.13.45-.07.14-.17.24-.3.32-.14.08-.31.12-.53.12-.36,0-.63-.07-.81-.21-.18-.14-.27-.38-.29-.73h.76ZM32.75,26.22s-.07.08-.08.14c-.02.06-.03.12-.04.19,0,.07,0,.15,0,.25,0,.19.02.33.05.43.04.09.11.14.23.14.11,0,.18-.04.22-.13.03-.09.05-.22.05-.41v-.09s0-.09,0-.12c0-.14-.02-.25-.06-.33-.04-.08-.11-.12-.22-.12-.06,0-.11.02-.15.05"/>
      <path class="cls-2" d="M35.04,28.33c0,.11.03.19.05.23.04.06.11.1.21.1.11,0,.18-.05.21-.15.03-.1.05-.26.05-.47v-.24c-.1.07-.18.12-.25.14-.07.03-.17.04-.29.04-.16,0-.29-.03-.4-.09-.1-.06-.19-.14-.24-.24-.06-.1-.1-.21-.12-.34-.02-.13-.04-.26-.04-.41,0-.21.02-.4.05-.56.03-.16.09-.3.17-.41.08-.12.2-.2.34-.26.14-.06.33-.09.54-.09.2,0,.36.03.5.09s.24.15.32.27c.08.11.13.25.17.4.03.15.05.32.05.51v.95c0,.22-.01.41-.03.58-.02.17-.07.32-.13.45-.07.14-.17.24-.31.32s-.31.12-.53.12c-.36,0-.63-.07-.81-.21-.18-.14-.28-.38-.29-.73h.76ZM35.16,26.22s-.07.08-.08.14c-.02.06-.03.12-.04.19,0,.07,0,.15,0,.25,0,.19.02.33.05.43.04.09.11.14.23.14.11,0,.18-.04.22-.13.03-.09.05-.22.05-.41v-.09s0-.09,0-.12c0-.14-.02-.25-.06-.33-.04-.08-.11-.12-.22-.12-.06,0-.11.02-.15.05"/>
      <path class="cls-2" d="M36.55,27.81l1.12-2.17h.84v2.24h.32v.6h-.32v.69h-.76v-.69h-1.2v-.67ZM37.75,27.88v-1.17h-.01l-.59,1.17h.6Z"/>
    </g>
  </g>
</svg>