<?xml version="1.0" encoding="UTF-8"?>
<svg id="_레이어_2" data-name="레이어 2" xmlns="http://www.w3.org/2000/svg" viewBox="0 0 56.69 23.44">
  <defs>
    <style>
      .cls-1 {
        fill: #fff;
      }

      .cls-1, .cls-2, .cls-3 {
        stroke-width: 0px;
      }

      .cls-2 {
        fill: #00398c;
      }

      .cls-3 {
        fill: #5e5957;
      }
    </style>
  </defs>
  <g id="_레이어_1-2" data-name="레이어 1">
    <g>
      <rect class="cls-2" x="18.69" y=".24" width="9.76" height=".63"/>
      <rect class="cls-2" x="30.53" y=".24" width="6.81" height=".63"/>
      <rect class="cls-2" x="18.77" y="18.07" width="6.97" height=".63"/>
      <rect class="cls-2" x="26.8" y="18.07" width="10.39" height=".63"/>
      <polygon class="cls-2" points="20.08 .8 29.81 18.19 35.76 18.19 25.28 .72 20.08 .8"/>
      <path class="cls-2" d="M18.9.87s1.35-.1,2.65,1.86l-.96-2.1-1.69.23Z"/>
      <path class="cls-2" d="M26.69.87s-1.16.41-.24,1.73l-1.61-1.96,1.84.23Z"/>
      <path class="cls-2" d="M28.68,16.08s.8,1.65-1.25,2l3.13.06-1.88-2.06Z"/>
      <path class="cls-2" d="M34.59,16.67s.74,1.2,1.92,1.39l-1.65.12-.27-1.51Z"/>
      <path class="cls-2" d="M31.51.88s1.77.95.92,2.16l-10.35,13.26s-1.53,1.64-2.75,1.8h5.65s-2.14-.98-.98-2.54l10.22-13.25s1.03-1.19,2.14-1.43c0,0-4.09-.66-4.86,0"/>
      <path class="cls-2" d="M.16.11h16.63l1.59,3.86h-1.03s-2.38-2.85-4.84-3.09h-3.7s-1.51.28-1.51,1.66v13.94s-.17,1.48,1.74,1.5h3.19s.74.08,1.83-.64c1.03-.68,2.39-1.64,3.33-3.16h1.03l-1.43,4.45H0v-.7h1.43s1.11-.03,1.27-1.45V2.47s.02-1.77-2.54-1.67V.11Z"/>
      <rect class="cls-2" x="5.57" y="8.76" width="7.34" height=".81"/>
      <path class="cls-2" d="M11.86,8.76s1.87-.41,1.87-2.9h.87v6.62h-.86s.23-2.93-1.9-2.93v-.78Z"/>
      <path class="cls-1" d="M2.39.95s1.6,0,1.48,1.48v14.37s0,1.28-1.48,1.22c0,0,.83-.32.83-1.8V2.68s0-1.28-.83-1.73"/>
      <path class="cls-1" d="M14.03,1.18l1.73.06.96,1.6s-1.54-1.41-2.69-1.67"/>
      <path class="cls-1" d="M13.55,7.88v2.19s-.44-.87-1.4-.91c0,0,1.27-.39,1.4-1.28"/>
      <path class="cls-1" d="M16.5,15.96s-.83,1.73-.9,1.99h-1.67s1.42-.66,2.57-1.99"/>
      <path class="cls-1" d="M20.48.92s.85.47,1.28,1.07l7.43,14.11s.64,1.2-.38,1.88c0,0,1.84-.08,1.03-2.18l-7.35-13.76s-.9-1.24-2.01-1.11"/>
      <path class="cls-1" d="M32.27.96s1.03.77.77,1.24l1.33-1.28-2.09.04Z"/>
      <path class="cls-1" d="M22.83,16.39s-.34,1.2.6,1.58h-2.69l2.09-1.58Z"/>
      <path class="cls-2" d="M43,15.57c1.17,1.35,2.05,1.88,3.55,2.02,1.67.15,3.11-.65,4.3-1.97,1.19-1.31,1.46-3.27,1.46-6.15s-.62-5.26-1.81-6.58c-1.16-1.29-2.08-2.06-3.95-2.09-1.7-.02-3.15.67-4.33,2.02-1.18,1.34-1.34,3.69-1.34,6.51s.94,4.89,2.11,6.24M48.07,18.37c-2.35.53-4.4-.12-4.4-.12l-.36-.16c-1.58-.69-2.81-1.47-3.67-2.35-1.61-1.63-2.42-3.76-2.42-6.4,0-2.86.95-5.41,2.86-7.13,1.75-1.58,3.9-2.21,6.46-2.21s4.67.62,6.43,2.18c1.94,1.72,2.91,4.28,2.91,7.16,0,2.28-.62,4.22-1.85,5.79-1.34,1.7-3.23,2.77-5.68,3.22h-.27Z"/>
      <path class="cls-1" d="M41.42,1.91s-4.02,2.61-3.63,8.34c0,0,.34,5.09,4.74,6.92,0,0-3.76-2.09-4.1-7.22,0,0-.47-4.87,2.99-8.04"/>
      <path class="cls-1" d="M49.2,1.14s4.36,2.52,4.36,8.42c0,0,.13,4.87-2.65,6.5,0,0,2.18-1.58,1.88-6.58,0,0,.3-5.65-3.59-8.34"/>
      <polygon class="cls-3" points="3.04 21.89 2.28 21.89 2.28 22.38 3.13 22.38 3.13 22.77 1.81 22.77 1.81 20.69 3.09 20.69 3.09 21.08 2.28 21.08 2.28 21.51 3.04 21.51 3.04 21.89"/>
      <path class="cls-3" d="M5.58,21.26l.15.25c.04.08.08.15.12.22h0c.04-.08.08-.16.12-.23l.13-.24h.51l-.5.72.5.79h-.53l-.15-.27c-.04-.07-.08-.15-.12-.23h0c-.04.08-.08.15-.11.23l-.14.27h-.51l.51-.77-.5-.74h.52Z"/>
      <path class="cls-3" d="M9.67,22.73c-.08.04-.24.07-.42.07-.49,0-.8-.3-.8-.77,0-.44.3-.8.86-.8.12,0,.26.02.36.06l-.07.35c-.06-.03-.14-.05-.26-.05-.25,0-.41.18-.4.42,0,.28.18.43.41.43.11,0,.2-.02.27-.05l.06.34Z"/>
      <path class="cls-3" d="M12.6,21.84c0-.11-.05-.31-.26-.31-.2,0-.28.18-.29.31h.55ZM12.05,22.16c.02.2.21.29.43.29.16,0,.29-.02.42-.07l.06.32c-.15.06-.34.1-.55.1-.51,0-.8-.3-.8-.77,0-.38.24-.8.76-.8.49,0,.67.38.67.75,0,.08,0,.15-.02.19h-.97Z"/>
      <rect class="cls-3" x="15.1" y="20.58" width=".47" height="2.19"/>
      <rect class="cls-3" x="17.73" y="20.58" width=".47" height="2.19"/>
      <path class="cls-3" d="M21.27,21.84c0-.11-.05-.31-.26-.31-.2,0-.28.18-.29.31h.55ZM20.72,22.16c.02.2.21.29.43.29.16,0,.29-.02.42-.07l.06.32c-.15.06-.34.1-.55.1-.51,0-.8-.3-.8-.77,0-.38.24-.8.76-.8.49,0,.67.38.67.75,0,.08,0,.15-.01.19h-.97Z"/>
      <path class="cls-3" d="M23.78,21.74c0-.19,0-.34-.01-.48h.41l.02.21h0c.06-.1.21-.24.46-.24.31,0,.54.21.54.65v.89h-.47v-.83c0-.19-.07-.33-.24-.33-.13,0-.21.09-.24.18-.01.03-.02.07-.02.12v.87h-.47v-1.03Z"/>
      <path class="cls-3" d="M27.88,20.85v.41h.34v.35h-.34v.55c0,.18.05.27.18.27.06,0,.1,0,.14-.01v.35c-.06.02-.17.04-.3.04-.15,0-.28-.05-.35-.13-.09-.09-.13-.23-.13-.45v-.62h-.2v-.35h.2v-.28l.46-.13Z"/>
      <path class="cls-3" d="M33.6,22.43c.32,0,.5-.3.5-.71,0-.38-.18-.69-.5-.69s-.5.31-.5.7.19.7.5.7h0ZM34.47,23.13c-.3-.09-.54-.18-.82-.29-.05-.02-.1-.03-.14-.03-.47-.03-.91-.38-.91-1.05,0-.63.39-1.09,1.02-1.09s.98.48.98,1.05c0,.47-.22.8-.49.93h0c.16.06.34.1.5.13l-.13.36Z"/>
      <path class="cls-3" d="M38.11,22.28c0,.2,0,.36.01.48h-.41l-.02-.21h0c-.06.09-.2.25-.47.25-.31,0-.53-.19-.53-.66v-.88h.47v.81c0,.22.07.35.24.35.13,0,.2-.09.23-.16.01-.03.02-.06.02-.1v-.9h.47v1.02Z"/>
      <path class="cls-3" d="M41.07,22.06c-.25,0-.44.06-.44.24,0,.12.08.18.18.18.11,0,.21-.08.24-.17,0-.03,0-.05,0-.08v-.16ZM41.52,22.4c0,.14,0,.28.02.36h-.42l-.03-.15h0c-.1.12-.25.18-.43.18-.31,0-.49-.22-.49-.46,0-.39.35-.58.88-.58v-.02c0-.08-.04-.19-.27-.19-.15,0-.32.05-.42.11l-.08-.3c.1-.06.31-.14.58-.14.5,0,.66.29.66.65v.53Z"/>
      <rect class="cls-3" x="43.68" y="20.58" width=".47" height="2.19"/>
      <path class="cls-3" d="M46.32,21.26h.47v1.51h-.47v-1.51ZM46.55,21.06c-.16,0-.26-.11-.26-.25s.1-.25.26-.25.26.11.26.25c0,.14-.1.25-.27.25h0Z"/>
      <path class="cls-3" d="M49.47,20.85v.41h.34v.35h-.34v.55c0,.18.05.27.18.27.06,0,.1,0,.14-.01v.35c-.06.02-.17.04-.3.04-.15,0-.28-.05-.35-.13-.09-.09-.13-.23-.13-.45v-.62h-.2v-.35h.2v-.28l.46-.13Z"/>
      <path class="cls-3" d="M52.23,21.26l.23.74c.02.09.05.2.07.28h0c.02-.08.05-.19.07-.28l.18-.74h.5l-.35.99c-.22.6-.36.84-.53.99-.16.14-.33.19-.45.21l-.1-.39c.06-.01.13-.04.2-.08.07-.04.15-.11.19-.19.02-.03.03-.05.03-.07,0-.02,0-.04-.02-.08l-.55-1.38h.52Z"/>
      <path class="cls-2" d="M43.63,16.11s1.41-2.48,3.64-2.16c0,0,.56-.11,2.4.74,0,0,4.84,3.75,7.03.74,0,0-.47,3.38-3,3.17,0,0-1.93.21-4.24-1.58,0,0-3.26-2.64-5.7-.74l-.13-.16Z"/>
      <path class="cls-1" d="M45.27,15.19s.9-.99,3.26.1c0,0,.85.35,1.42.73,1.38.94,4.02,2.21,5.49,1.06,0,0-1.15,2.15-4.82.04,0,0-3.12-2.35-5.34-1.92"/>
    </g>
  </g>
</svg>