<?xml version="1.0" encoding="UTF-8"?>
<svg id="_레이어_2" data-name="레이어 2" xmlns="http://www.w3.org/2000/svg" viewBox="0 0 56.96 56.96">
  <defs>
    <style>
      .cls-1 {
        stroke: #fbed00;
        stroke-width: .26px;
      }

      .cls-1, .cls-2 {
        fill: none;
      }

      .cls-1, .cls-3, .cls-4, .cls-5, .cls-6, .cls-7, .cls-8 {
        fill-rule: evenodd;
      }

      .cls-2 {
        stroke: #fff;
        stroke-width: .3px;
      }

      .cls-3 {
        fill: #fbed00;
      }

      .cls-3, .cls-4, .cls-5, .cls-6, .cls-7, .cls-8 {
        stroke-width: 0px;
      }

      .cls-4 {
        fill: #e00414;
      }

      .cls-5 {
        fill: #fcd500;
      }

      .cls-6 {
        fill: #fff;
      }

      .cls-7 {
        fill: #ec8500;
      }

      .cls-8 {
        fill: #bb121a;
      }
    </style>
  </defs>
  <g id="_레이어_1-2" data-name="레이어 1">
    <g>
      <path class="cls-3" d="M56.82,28.48c0,15.65-12.69,28.34-28.35,28.34S.13,44.13.13,28.48,12.83.13,28.48.13s28.35,12.69,28.35,28.35Z"/>
      <path class="cls-1" d="M56.82,28.48c0,15.65-12.69,28.34-28.35,28.34S.13,44.13.13,28.48,12.83.13,28.48.13s28.35,12.69,28.35,28.35"/>
      <path class="cls-5" d="M53.44,28.48c0,13.78-11.17,24.96-24.96,24.96S3.52,42.26,3.52,28.48,14.69,3.52,28.48,3.52s24.96,11.17,24.96,24.96Z"/>
      <path class="cls-7" d="M51.15,28.48c0,12.52-10.15,22.67-22.68,22.67S5.8,41,5.8,28.48,15.95,5.8,28.48,5.8s22.68,10.15,22.68,22.68Z"/>
      <path class="cls-4" d="M48.95,28.48c0,11.31-9.17,20.47-20.47,20.47s-20.47-9.16-20.47-20.47S17.17,8,28.48,8s20.47,9.17,20.47,20.48Z"/>
      <path class="cls-8" d="M45.96,28.46c0,9.62-7.8,17.43-17.43,17.43-9.63,0-17.43-7.8-17.43-17.43s7.8-17.43,17.43-17.43,17.43,7.81,17.43,17.43Z"/>
      <path class="cls-6" d="M39.86,19.28c.42,1.12.38,2.57-.58,3.4-1.22.77-2.53,1.55-3.78,2.23l-4.33-7.48c1.09-.67,2.24-1.31,3.36-1.95,1.03-.51,2.34-.19,3.17.48,1.09.93,1.6,2.15,2.15,3.33Z"/>
      <path class="cls-8" d="M37.78,19.95c.19.48.19,1.06-.19,1.44-.35.29-.74.45-1.15.64-.8-1.28-1.57-2.63-2.27-3.97.54-.32,1.09-.9,1.83-.61.9.58,1.38,1.6,1.79,2.5Z"/>
      <path class="cls-6" d="M34.35,25.5c-.54.39-1.22.77-1.86,1.09-1.44-2.47-2.85-4.97-4.29-7.43.51-.39,1.88-1.07,1.88-1.07l4.28,7.42Z"/>
      <path class="cls-6" d="M30.09,25.27c.35.71.6,1.89.03,2.61-.98,1.25-2.56,2.04-4.23,1.72-.74-.19-1.44-.87-1.79-1.57l-2.85-4.9c.61-.38,1.39-.79,2.06-1.15,0,0,1.91,3.45,2.88,5.06.19.22.45.35.74.35.48.06.9-.32,1.09-.74.1-.26.06-.58-.06-.8l-2.85-4.91c.58-.38,1.25-.83,1.92-1.09l3.08,5.42Z"/>
      <path class="cls-6" d="M21.95,29.6c.13.26.38.35.67.32.61-.19,1.12-.58,1.7-.9h.16c.29.55.64,1.09.93,1.67l-2.85,1.57c-.48.23-1.28.1-1.76-.35l-.38-.45c-1.12-1.99-2.24-3.94-3.43-5.89.58-.42,2.02-1.12,2.02-1.12l2.95,5.16Z"/>
      <path class="cls-6" d="M40.37,25.59l3.49,6.02c-.54.38-1.22.7-1.83,1.06l-3.17-5.32c-.16-.26-.45-.29-.7-.22-.16.06-.32.22-.39.38-.06.64.48,1.12.71,1.67.8,1.38,1.63,2.75,2.37,4.16-.61.35-1.18.77-1.86.99l-3.11-5.35c-.19-.19-.48-.26-.7-.16-.23.1-.32.32-.32.54l.1.42c.99,1.76,1.99,3.49,2.95,5.25l-1.79,1.06-3.3-5.57c-.29-.64-.52-1.51-.23-2.21.23-.45.66-.8,1.22-1.09.52-.32,1.22-.38,1.86-.26.13.06.29.13.45.22.03-.74.32-1.41.99-1.89.61-.42,1.38-.7,2.18-.45.42.1.8.42,1.09.74Z"/>
      <path class="cls-6" d="M17.33,27.58c-.8.56-2.62,1.24-2.08,2.2.13.24.24.36.46.46.86,0,1.49-.56,2.26-.93l.87,1.63c-.92.63-1.85.83-1.92,1.54.19.86.8,1.57,1.15,2.37l-1.76.99c-1.11-1.87-2.24-3.84-3.36-5.8-.39-.74-.41-1.76.35-2.31.9-.77,1.95-1.19,2.91-1.79h.16l.96,1.63Z"/>
      <path class="cls-6" d="M24.67,34.96c-.8.55-2.62,1.24-2.08,2.2.13.24.24.36.46.46.87,0,1.49-.56,2.26-.92l.86,1.63c-.92.63-1.85.83-1.92,1.54.19.86.8,1.57,1.15,2.37l-1.76.99c-1.11-1.82-2.24-3.84-3.36-5.8-.38-.74-.41-1.76.35-2.31.9-.77,1.95-1.19,2.92-1.79h.16s.96,1.63.96,1.63Z"/>
      <path class="cls-6" d="M31.98,35.24c.16.19.35.35.61.35.74-.16,1.28-.67,1.95-.96.42.54.67,1.15,1.02,1.73-.9.58-1.89,1.12-2.85,1.63-.54.29-1.22.03-1.7-.26l-.58-.64-3.36-5.9c.54-.42,1.22-.77,1.83-1.09,0,0,2.08,3.43,3.08,5.13Z"/>
      <path class="cls-6" d="M30.47,39.31c-.61.35-1.22.7-1.86,1.06,0,0-2.95-5-4.39-7.43v-.13l1.76-1.06c.14.18,4.49,7.56,4.49,7.56Z"/>
      <path class="cls-6" d="M43.93,30.88c-.24-.36-.14-.84.21-1.08.36-.24.84-.14,1.08.21.24.36.14.84-.21,1.08-.36.24-.84.14-1.08-.22h0ZM45.02,30.15c-.18-.26-.51-.33-.75-.17-.24.16-.31.49-.13.76.18.26.51.33.75.17.24-.16.31-.49.13-.76h0ZM44.08,30.26l.47.7.17-.12-.2-.29.03-.02.35.19.17-.11-.37-.19c.11-.08.16-.19.07-.33-.1-.16-.23-.14-.41-.03l-.29.19h0ZM44.44,30.42l.1-.07c.06-.04.09-.09.06-.15-.04-.05-.11-.01-.16.02l-.09.06.09.14Z"/>
      <path class="cls-6" d="M21.26,14.91c0,.47-.38.85-.85.85s-.85-.38-.85-.85.38-.85.85-.85.85.38.85.85Z"/>
      <path class="cls-6" d="M20.24,18.81c0,.47-.38.85-.85.85s-.85-.38-.85-.85.38-.85.85-.85c.47,0,.85.38.85.85Z"/>
      <path class="cls-6" d="M25.18,15.97c0,.47-.38.85-.85.85s-.85-.38-.85-.85c0-.47.38-.85.85-.85s.85.38.85.85Z"/>
      <path class="cls-6" d="M24.14,19.85c0,.47-.38.85-.85.85-.47,0-.85-.38-.85-.85s.38-.85.85-.85.85.38.85.85Z"/>
      <path class="cls-6" d="M19.67,16.61c0,.32-.26.58-.58.58s-.58-.26-.58-.58.26-.58.58-.58.58.26.58.58Z"/>
      <path class="cls-6" d="M23.18,14.68c0,.32-.26.58-.58.58s-.58-.26-.58-.58.26-.58.58-.58.58.26.58.58Z"/>
      <path class="cls-6" d="M21.71,20.14c0,.32-.26.58-.58.58s-.58-.26-.58-.58.26-.58.58-.58.58.26.58.58Z"/>
      <path class="cls-6" d="M25.19,18.11c0,.32-.26.58-.58.58s-.58-.26-.58-.58.26-.58.58-.58.58.26.58.58Z"/>
      <path class="cls-6" d="M22.67,17.37c0-.43-.35-.77-.77-.77s-.77.35-.77.77.35.77.77.77.77-.35.77-.77Z"/>
      <path class="cls-6" d="M20.42,14.91l2.88,4.94-2.88-4.94Z"/>
      <line class="cls-2" x1="20.42" y1="14.91" x2="23.29" y2="19.85"/>
      <path class="cls-6" d="M22.6,14.61l-1.46,5.53,1.46-5.53Z"/>
      <line class="cls-2" x1="22.6" y1="14.61" x2="21.13" y2="20.14"/>
      <path class="cls-6" d="M24.34,15.93l-4.94,2.88,4.94-2.88Z"/>
      <line class="cls-2" x1="24.34" y1="15.93" x2="19.4" y2="18.81"/>
      <path class="cls-6" d="M24.64,18.11l-5.53-1.46,5.53,1.46Z"/>
      <line class="cls-2" x1="24.64" y1="18.11" x2="19.12" y2="16.65"/>
    </g>
  </g>
</svg>