<?xml version="1.0" encoding="UTF-8"?>
<svg id="_레이어_2" data-name="레이어 2" xmlns="http://www.w3.org/2000/svg" viewBox="0 0 56.69 22.36">
  <defs>
    <style>
      .cls-1 {
        fill: #00943d;
      }

      .cls-1, .cls-2 {
        stroke-width: 0px;
      }

      .cls-2 {
        fill: #0054a5;
      }
    </style>
  </defs>
  <g id="_레이어_1-2" data-name="레이어 1">
    <g>
      <path class="cls-1" d="M4.3,8.63s21.69-6.59,34.45,2.15h6.24S33.75-3.16,4.3,8.63"/>
      <path class="cls-2" d="M56,10.78h-6.24S40.23-2.03,14.6,3.8c-.13.03-.26.06-.4.09,0,0,25.51-12.33,41.8,6.89"/>
      <polygon class="cls-2" points="7.21 22.36 0 22.36 2.84 9.53 10.05 9.53 7.21 22.36"/>
      <polygon class="cls-2" points="40.96 22.36 35.97 22.36 38.47 12.86 43.46 12.86 40.96 22.36"/>
      <polygon class="cls-2" points="14.72 20.35 16.68 12.86 11.69 12.86 9.2 22.36 12.94 22.36 14.19 22.36 17.33 22.36 18.09 20.35 14.72 20.35"/>
      <polygon class="cls-2" points="43.18 22.36 45.74 12.86 49.69 12.86 51.43 17.16 52.53 12.86 56.69 12.86 54.34 22.36 50.25 22.36 48.17 18.69 47.48 22.36 43.18 22.36"/>
      <path class="cls-2" d="M20.03,17.61h6.03s-.35,2.81.76,2.74h.9s1.04.24,1.25-1.37c0,0-.07-.57-1.73-1.37-1.66-.8-3.47-1.46-3.47-1.46,0,0-2.91-.59-2.91-2.81,0,0-.76-3.81,6.65-3.81h5.68s3.53.9,2.77,4.09h-6.31s1.04-1.18-.07-1.73h-1.54s-1.89.97,0,1.94c1.89.97,5.77,2.32,5.77,2.32,0,0,1.28.73,1.28,2.6v.35s-.14,3.26-5.1,3.26h-7.83s-3.74-.9-2.15-4.75"/>
    </g>
  </g>
</svg>