<?xml version="1.0" encoding="UTF-8"?>
<svg id="_레이어_2" data-name="레이어 2" xmlns="http://www.w3.org/2000/svg" viewBox="0 0 56.69 4.42">
  <defs>
    <style>
      .cls-1 {
        fill: #cb0e2f;
        stroke-width: 0px;
      }
    </style>
  </defs>
  <g id="_레이어_1-2" data-name="레이어 1">
    <g>
      <path class="cls-1" d="M54.49.64c-.23-.19-.57-.41-1.01-.53-.42-.12-.99-.1-1.74-.1h-.95s-11.24.03-11.24.03C39.26.01,38.93,0,38.58,0c-.34,0-.67.01-.98.04L1.65.1s-.05.01-.06.04h0S0,4.31,0,4.31h.01s-.01.03-.01.03c0,.04.04.08.08.08l49.83-.08h.29c.12,0,.25,0,.39,0h.01s0,0,0,0c.36-.02.74-.05,1.17-.11.43-.06.86-.17,1.28-.33.42-.17.75-.49,1.04-.74.29-.25.53-.59.69-1.04.11-.28.14-.55.1-.81-.04-.25-.17-.48-.4-.67ZM6.74,4.25l.34-.9h-3.75S4.49.25,4.49.25h4.18s-.92,2.36-.92,2.36c-.08.21-.09.44-.03.71.04.17.16.33.37.48.21.16.46.28.75.36.13.04.27.07.43.09h-2.53ZM11.51,3.3c-.58.03-.65-.36-.56-.62.07-.23.68-1.96.85-2.44h1.92c-.18.48-.93,2.46-1.11,2.67-.21.24-.51.37-1.09.39ZM16.29,4.24h-2.59c.26-.03.53-.08.77-.18.4-.17.62-.36.86-.58.24-.22.41-.64.5-.88l.92-2.36h1.05s-1.51,4-1.51,4ZM21.51,2.94c-.05.13-.15.22-.35.32-.2.1-.41.12-.66.12h-.98s.32-.84.32-.84h.62c.45,0,.75.03.9.11.15.07.2.17.16.3ZM21.79,1.33c-.05.13-.14.24-.31.33-.14.07-.15.08-.55.08h-.79s.3-.79.3-.79h.45c.39,0,.65.03.78.1.13.07.17.16.13.28ZM24.62,4.22h-2.75c.44-.03.77-.08,1.01-.14.39-.1.71-.24.98-.41.26-.17.44-.37.52-.58.1-.27.04-.49-.17-.66-.22-.18-.61-.3-1.17-.37.42-.07.75-.16,1-.28.37-.18.61-.39.7-.64.11-.29,0-.54-.36-.74-.12-.07-.28-.13-.45-.17h2.22s-1.51,4-1.51,4ZM27.63,4.22l.62-1.65.09.08c.12.1.22.17.33.34l.85,1.23h-1.89ZM30.36,1.35c-.03.09-.08.2-.21.27-.13.07-.2.12-.37.14-.35.04-.47.03-.59.02h-.65s.32-.85.32-.85h.7c.47,0,.52.03.66.11.14.07.19.17.14.31ZM32.73,4.21l-.75-1.16c-.04-.06-.12-.15-.26-.26-.14-.11-.25-.18-.33-.22-.23-.13-.26-.12-.26-.12,0,0,.37,0,.61-.02.39-.04.95-.23,1.21-.4.26-.17.45-.55.47-.8.03-.42-.13-.49-.31-.68-.17-.17-.42-.28-.76-.35h4.11c-.45.09-.86.21-1.23.37-.9.38-1.47.91-1.73,1.6-.18.49-.15.9.11,1.22.26.32.66.56,1.22.71.15.04.32.07.5.1h-2.59ZM38.52,3.09c-.29.17-.65.26-1.08.26-.42,0-.73-.09-.93-.27-.19-.18-.23-.47-.12-.87.12-.41.32-.7.62-.88.3-.18.65-.27,1.06-.27.43,0,.74.09.94.26.2.17.25.45.14.83-.13.45-.34.76-.62.93ZM42.18,4.2h-3.45c.25-.03.49-.08.72-.14.68-.18,1.25-.42,1.69-.73.44-.31.76-.71.94-1.2.25-.67.08-1.2-.53-1.57-.25-.15-.56-.27-.94-.36h3.08s-1.51,4-1.51,4ZM46.31,4.19h-1.16s1.51-4,1.51-4h1.16s-1.51,4-1.51,4ZM51.81,2.15c-.13.33-.28.58-.47.73-.18.15-.4.25-.65.31-.25.06-.24.09-.78.09h-.36s.86-2.28.86-2.28h.37c.66,0,.71.08.94.24.22.16.25.47.09.91Z"/>
      <path class="cls-1" d="M56.59.59c-.07-.12-.16-.21-.28-.27-.12-.06-.24-.09-.36-.09-.12,0-.24.03-.36.1-.12.06-.21.16-.28.27-.07.12-.1.24-.1.37,0,.13.03.25.1.37.06.12.16.21.27.27.12.06.24.1.37.1.13,0,.25-.03.37-.1.12-.07.21-.16.27-.27.07-.12.1-.24.1-.37,0-.13-.03-.25-.1-.37ZM56.49,1.27c-.05.1-.13.17-.23.23-.1.05-.2.08-.31.08-.11,0-.21-.03-.31-.08-.1-.05-.17-.13-.23-.23-.05-.1-.08-.2-.08-.31,0-.11.03-.21.08-.31.05-.1.13-.17.23-.23.1-.05.2-.08.3-.08.1,0,.2.03.3.08.1.05.17.13.23.23.05.1.08.2.08.31,0,.11-.03.21-.08.31Z"/>
      <path class="cls-1" d="M56.09,1.06l-.07-.04c.07,0,.12-.03.17-.07.04-.04.06-.09.06-.15,0-.04-.01-.08-.04-.12-.02-.04-.06-.06-.1-.08-.04-.01-.11-.02-.2-.02h-.27s0,.79,0,.79h.13s0-.34,0-.34h.08s.08,0,.1.03c.03.03.08.09.13.18l.07.13h.16s-.1-.16-.1-.16c-.05-.07-.09-.13-.12-.16ZM55.92.92h-.15s0-.24,0-.24h.15c.06,0,.11,0,.13.01l.05.04.02.06s-.01.07-.04.09c-.03.02-.08.03-.15.03Z"/>
    </g>
  </g>
</svg>